<?xml version="1.0" encoding="UTF-8"?>
<svg width="63.5mm" height="63.5mm" version="1.1" viewBox="0 0 63.5 63.5" xmlns="http://www.w3.org/2000/svg"
    xmlns:cc="http://creativecommons.org/ns#" xmlns:dc="http://purl.org/dc/elements/1.1/"
    xmlns:rdf="http://www.w3.org/1999/02/22-rdf-syntax-ns#">
    <rect x="0" y="0" width="63.5" height="63.5" fill="#d9e3e5" />
    <path fill="#ebe6cc"
        d="m 46.4 5.7 c -8.6 0.1 -16.4 3.6 -20.6 7.6 c -6.8 6.7 -12.7 17.1 -11.9 22.5 c 0.8 5.4 8 11.1 28.6 10 c 10.1 -0.5 16.9 -3.1 21.2 -5.5 v -28.1 l -0.4 -1.7 c -5.5 -3.5 -11.4 -4.8 -16.9 -4.8 z"
        stroke="#4a4a4a" stroke-width="0.5" />
    <path d="m 18 36 c -0.3 -0.7 -0.6 -2.5 0.6 -2.4 c 0.9 0.4 1 1.7 0.4 2.4 c -0.2 0.4 -0.8 0.6 -0.9 0 z"
        fill="#4a4a4a" />
    <path d="m 33 38 c -0.7 -0.8 -0.2 -2.5 1 -2.1 c 1.1 0.4 1.4 2.1 0.3 2.6 c -0.5 0.2 -1 -0.1 -1.3 -0.5 z"
        fill="#4a4a4a" />
    <path d="m 23 40 c -0.5 -0.8 -1 -2.5 0.3 -2.8 c 0.9 -0.1 2.3 0.7 1.9 1.7 c -0.5 0.5 -1.5 1.8 -2.1 1.1 z"
        fill="#4a4a4a" />
</svg>